<svg xmlns="http://www.w3.org/2000/svg" viewBox="0 0 80 80"><path d="M63.483 32.81a24.945 24.945 0 0 0-4.301-.754 24.985 24.985 0 0 0 5.86-16.098 1 1 0 0 0-1-1 24.979 24.979 0 0 0-16.106 5.868 25.051 25.051 0 0 0-.745-4.307 24.983 24.983 0 0 0-6.484-11.226 1 1 0 0 0-1.414 0 24.976 24.976 0 0 0-6.483 11.224 25.004 25.004 0 0 0-.745 4.31 24.985 24.985 0 0 0-16.107-5.868 1 1 0 0 0-1 .999 24.979 24.979 0 0 0 5.869 16.106 25.041 25.041 0 0 0-4.308.745 24.983 24.983 0 0 0-11.226 6.484 1 1 0 0 0 0 1.414 24.976 24.976 0 0 0 11.224 6.483 25 25 0 0 0 4.309.746 24.985 24.985 0 0 0-5.868 16.106 1 1 0 0 0 1 1 24.979 24.979 0 0 0 16.106-5.868c.126 1.455.367 2.897.745 4.307a24.983 24.983 0 0 0 6.484 11.226.997.997 0 0 0 1.414 0 24.976 24.976 0 0 0 6.483-11.224c.378-1.409.619-2.853.745-4.31a24.985 24.985 0 0 0 16.107 5.868 1 1 0 0 0 1-.999c0-4.411-1.16-8.741-3.352-12.522a25.244 25.244 0 0 0-2.515-3.584 25.062 25.062 0 0 0 4.306-.745 24.983 24.983 0 0 0 11.226-6.484 1 1 0 0 0 0-1.414 24.976 24.976 0 0 0-11.224-6.483zM52.523 20.04a22.955 22.955 0 0 1 10.497-3.06 22.951 22.951 0 0 1-3.062 10.498 23.171 23.171 0 0 1-3.522 4.625.986.986 0 0 0-.379.387 22.928 22.928 0 0 1-11.074 5.963 5.227 5.227 0 0 0-3.437-3.437 22.917 22.917 0 0 1 6.2-11.307l.005-.006a23.203 23.203 0 0 1 4.771-3.663zM40 43.242c-1.788 0-3.242-1.454-3.242-3.242s1.454-3.242 3.242-3.242 3.242 1.454 3.242 3.242-1.454 3.242-3.242 3.242zm0-35.796a22.957 22.957 0 0 1 5.259 9.588 23.1 23.1 0 0 1 .77 5.564A24.91 24.91 0 0 0 40 32.972a24.912 24.912 0 0 0-6.028-10.373c.033-1.884.284-3.755.77-5.567A22.95 22.95 0 0 1 40 7.446zM16.98 16.98a22.962 22.962 0 0 1 15.125 6.585c.093.16.223.29.385.377a22.92 22.92 0 0 1 5.964 11.075 5.227 5.227 0 0 0-3.437 3.436 22.927 22.927 0 0 1-11.308-6.2l-.003-.003a23.198 23.198 0 0 1-3.665-4.772 22.955 22.955 0 0 1-3.06-10.498zM7.446 40a22.957 22.957 0 0 1 9.588-5.259 23.092 23.092 0 0 1 5.565-.77A24.925 24.925 0 0 0 32.974 40a24.922 24.922 0 0 0-10.376 6.029 23.082 23.082 0 0 1-5.566-.771A22.95 22.95 0 0 1 7.446 40zm20.032 19.959a22.955 22.955 0 0 1-10.498 3.06 22.951 22.951 0 0 1 3.062-10.498 23.171 23.171 0 0 1 3.522-4.625.986.986 0 0 0 .379-.387 22.93 22.93 0 0 1 11.074-5.963 5.227 5.227 0 0 0 3.436 3.437 22.919 22.919 0 0 1-6.198 11.307l-.007.007a23.193 23.193 0 0 1-4.77 3.662zM40 72.554a22.957 22.957 0 0 1-5.259-9.588 23.097 23.097 0 0 1-.77-5.564A24.918 24.918 0 0 0 40 47.026 24.92 24.92 0 0 0 46.028 57.4a23.052 23.052 0 0 1-.77 5.567A22.95 22.95 0 0 1 40 72.554zm23.02-9.534a22.951 22.951 0 0 1-10.499-3.062 23.177 23.177 0 0 1-4.626-3.523.987.987 0 0 0-.386-.378 22.928 22.928 0 0 1-5.963-11.074 5.227 5.227 0 0 0 3.437-3.437 22.926 22.926 0 0 1 11.306 6.198l.008.008a23.18 23.18 0 0 1 3.662 4.77 22.955 22.955 0 0 1 3.06 10.498zm-.054-17.761a23.099 23.099 0 0 1-5.564.77A24.922 24.922 0 0 0 47.026 40a24.921 24.921 0 0 0 10.38-6.032c1.878.012 3.751.289 5.562.774A22.95 22.95 0 0 1 72.554 40a22.957 22.957 0 0 1-9.588 5.259z"/></svg>