<svg xmlns="http://www.w3.org/2000/svg" width="16" height="16" enable-background="new 0 0 64 64" viewBox="0 0 64 64"><path fill="#133851" d="M64,31.72c0-0.27-0.111-0.52-0.301-0.7c-0.27-0.26-6.27-5.83-13.74-6.74c4.61-5.91,4.74-14.04,4.75-14.41
		c0-0.27-0.109-0.52-0.289-0.71c-0.19-0.18-0.48-0.29-0.711-0.27c-0.38,0.01-8.55,0.32-14.479,4.95
		c-0.92-7.44-6.56-13.29-6.82-13.55c-0.19-0.18-0.42-0.29-0.7-0.29c-0.27,0-0.52,0.12-0.699,0.31c-0.26,0.27-5.82,6.27-6.73,13.73
		c-5.92-4.6-14.04-4.74-14.41-4.75c-0.26-0.01-0.52,0.11-0.71,0.29c-0.18,0.19-0.28,0.45-0.271,0.71
		c0.011,0.38,0.32,8.55,4.951,14.48c-7.44,0.92-13.28,6.56-13.551,6.82C0.109,31.78,0,32.03,0,32.3c0.01,0.26,0.119,0.51,0.31,0.69
		c0.27,0.26,6.26,5.82,13.72,6.73c-4.6,5.92-4.74,14.04-4.74,14.41c-0.01,0.27,0.1,0.52,0.29,0.71c0.181,0.18,0.46,0.28,0.71,0.27
		c0.37-0.01,8.54-0.31,14.471-4.95c0.93,7.44,6.56,13.29,6.819,13.55c0.19,0.18,0.44,0.29,0.7,0.29c0,0,0,0,0.01,0
		c0.26,0,0.51-0.12,0.7-0.3c0.25-0.28,5.82-6.27,6.74-13.73c5.899,4.6,14.021,4.74,14.39,4.75c0.29,0.01,0.52-0.11,0.71-0.29
		c0.181-0.19,0.28-0.45,0.28-0.71c-0.02-0.38-0.32-8.55-4.95-14.48c7.45-0.92,13.29-6.56,13.55-6.82
		C63.899,32.23,64.01,31.98,64,31.72z M52.699,10.91c-0.21,2.55-1.17,9.13-5.35,13.4l-10.28,4.44c-0.06-0.1-0.11-0.18-0.181-0.28
		l6.171-6.17c0.38-0.38,0.38-1,0-1.37c-0.37-0.38-0.98-0.38-1.37,0l-6.18,6.17c-0.141-0.09-0.271-0.18-0.42-0.27l4.119-10.39
		C43.51,12.26,50.139,11.18,52.699,10.91z M36.09,32.04c0,0.52-0.09,1.02-0.291,1.48c-0.189,0.5-0.479,0.94-0.85,1.33
		c-0.02,0.01-0.04,0.02-0.061,0.04c-0.01,0-0.01,0.01-0.02,0.02c-0.359,0.36-0.79,0.65-1.26,0.85c-0.471,0.22-0.99,0.33-1.51,0.34
		c-0.04,0-0.07-0.02-0.1-0.02c-0.031,0-0.051,0.01-0.07,0.01c-0.49,0-0.99-0.09-1.45-0.29c-0.5-0.19-0.95-0.48-1.33-0.85
		c-0.021-0.02-0.03-0.05-0.04-0.06c-0.01-0.01-0.02-0.02-0.03-0.02c-0.36-0.36-0.649-0.78-0.85-1.24c-0.22-0.5-0.32-1.05-0.33-1.59
		c0-0.02,0.01-0.03,0.01-0.05c0-0.01-0.01-0.02-0.01-0.03c0.01-0.51,0.101-1.01,0.29-1.45V30.5c0.4-1,1.189-1.83,2.18-2.26
		c1.03-0.43,2.16-0.44,3.141-0.04c1,0.4,1.83,1.19,2.25,2.18c0.22,0.5,0.319,1.03,0.33,1.58c0,0.01-0.011,0.021-0.011,0.03
		C36.079,32.01,36.09,32.02,36.09,32.04z M31.729,2.44c1.649,1.96,5.61,7.29,5.69,13.27l-4.131,10.4
		c-0.109-0.03-0.21-0.04-0.32-0.06v-8.73c0-0.54-0.439-0.97-0.969-0.97c-0.541,0-0.971,0.43-0.971,0.97v8.74
		c-0.16,0.02-0.33,0.05-0.49,0.09L26.1,15.89C26.18,9.9,30.1,4.45,31.729,2.44z M10.909,11.3c2.55,0.21,9.12,1.17,13.41,5.35
		l4.431,10.27c-0.091,0.06-0.181,0.12-0.271,0.18l-6.181-6.17c-0.379-0.38-0.989-0.38-1.359,0c-0.38,0.37-0.38,0.99,0,1.37
		l6.17,6.18c-0.1,0.14-0.189,0.28-0.29,0.43l-10.38-4.12C12.26,20.49,11.18,13.86,10.909,11.3z M2.439,32.27
		c1.96-1.65,7.279-5.61,13.27-5.69l10.4,4.13c-0.03,0.11-0.04,0.21-0.061,0.31h-8.729c-0.53,0-0.97,0.44-0.97,0.97
		c0,0.54,0.439,0.97,0.97,0.97h8.729c0.021,0.17,0.051,0.34,0.09,0.5l-10.26,4.44C9.889,37.82,4.439,33.9,2.439,32.27z
		 M11.289,53.09c0.211-2.55,1.16-9.11,5.35-13.4l10.271-4.44c0.06,0.1,0.13,0.18,0.181,0.27l-6.15,6.17c-0.38,0.38-0.38,0.99,0,1.37
		c0.18,0.19,0.43,0.29,0.67,0.29c0.26,0,0.5-0.1,0.689-0.29l6.17-6.16c0.141,0.09,0.281,0.19,0.431,0.28l-4.12,10.38
		C20.479,51.75,13.85,52.83,11.289,53.09z M32.26,61.56c-1.65-1.95-5.61-7.27-5.681-13.27l4.12-10.39c0.11,0.02,0.21,0.04,0.33,0.06
		v8.71c0,0.53,0.43,0.97,0.971,0.97c0.529,0,0.969-0.44,0.969-0.97v-8.71c0.17-0.03,0.341-0.06,0.5-0.1l4.44,10.26
		C37.829,54.11,33.889,59.56,32.26,61.56z M53.079,52.71c-2.55-0.21-9.1-1.17-13.39-5.35l-4.43-10.29c0.09-0.06,0.17-0.11,0.27-0.17
		l6.16,6.16c0.189,0.19,0.439,0.29,0.689,0.29s0.49-0.1,0.681-0.29c0.38-0.38,0.38-0.99,0-1.37l-6.16-6.17
		c0.09-0.14,0.19-0.27,0.271-0.42l10.39,4.12C51.739,43.52,52.819,50.15,53.079,52.71z M48.299,37.43l-10.41-4.13
		c0.021-0.11,0.031-0.22,0.051-0.34h8.74c0.529,0,0.97-0.43,0.97-0.97c0-0.53-0.44-0.97-0.97-0.97h-8.73
		c-0.029-0.16-0.061-0.33-0.1-0.49l10.26-4.43c5.99,0.08,11.45,4.01,13.45,5.64C59.609,33.39,54.289,37.35,48.299,37.43z"/><path fill="#F26E62" d="M37.909 48.12c-.08 5.99-4.021 11.44-5.649 13.44-1.65-1.95-5.61-7.27-5.681-13.27l4.12-10.39c.11.02.21.04.33.06v8.71c0 .53.43.97.971.97.529 0 .969-.44.969-.97v-8.71c.17-.03.341-.06.5-.1L37.909 48.12zM37.42 15.71l-4.131 10.4c-.109-.03-.21-.04-.32-.06v-8.73c0-.54-.439-.97-.969-.97-.541 0-.971.43-.971.97v8.74c-.16.02-.33.05-.49.09L26.1 15.89c.08-5.99 4-11.44 5.63-13.45C33.379 4.4 37.34 9.73 37.42 15.71zM26.139 33.46l-10.26 4.44c-5.99-.08-11.439-4-13.439-5.63 1.96-1.65 7.279-5.61 13.27-5.69l10.4 4.13c-.03.11-.04.21-.061.31h-8.729c-.53 0-.97.44-.97.97 0 .54.439.97.97.97h8.729C26.069 33.13 26.1 33.3 26.139 33.46zM61.56 31.74c-1.95 1.65-7.271 5.61-13.261 5.69l-10.41-4.13c.021-.11.031-.22.051-.34h8.74c.529 0 .97-.43.97-.97 0-.53-.44-.97-.97-.97h-8.73c-.029-.16-.061-.33-.1-.49l10.26-4.43C54.1 26.18 59.56 30.11 61.56 31.74z"/><path fill="#E15F5A" d="M53.079 52.71c-2.55-.21-9.1-1.17-13.39-5.35l-4.43-10.29c.09-.06.17-.11.27-.17l6.16 6.16c.189.19.439.29.689.29s.49-.1.681-.29c.38-.38.38-.99 0-1.37l-6.16-6.17c.09-.14.19-.27.271-.42l10.39 4.12C51.739 43.52 52.819 50.15 53.079 52.71zM28.899 37.18l-4.12 10.38c-4.3 4.19-10.93 5.27-13.49 5.53.211-2.55 1.16-9.11 5.35-13.4l10.271-4.44c.06.1.13.18.181.27l-6.15 6.17c-.38.38-.38.99 0 1.37.18.19.43.29.67.29.26 0 .5-.1.689-.29l6.17-6.16C28.609 36.99 28.75 37.09 28.899 37.18z"/><path fill="#FEDC7D" d="M36.079,31.99c0,0.02,0.011,0.03,0.011,0.05c0,0.52-0.09,1.02-0.291,1.48c-0.189,0.5-0.479,0.94-0.85,1.33
		c-0.02,0.01-0.04,0.02-0.061,0.04c-0.01,0-0.01,0.01-0.02,0.02c-0.359,0.36-0.79,0.65-1.26,0.85c-0.471,0.22-0.99,0.33-1.51,0.34
		c-0.04,0-0.07-0.02-0.1-0.02c-0.031,0-0.051,0.01-0.07,0.01c-0.49,0-0.99-0.09-1.45-0.29c-0.5-0.19-0.95-0.48-1.33-0.85
		c-0.021-0.02-0.03-0.05-0.04-0.06c-0.01-0.01-0.02-0.02-0.03-0.02c-0.36-0.36-0.649-0.78-0.85-1.24c-0.22-0.5-0.32-1.05-0.33-1.59
		c0-0.02,0.01-0.03,0.01-0.05c0-0.01-0.01-0.02-0.01-0.03c0.01-0.51,0.101-1.01,0.29-1.45V30.5c0.4-1,1.189-1.83,2.18-2.26
		c1.03-0.43,2.16-0.44,3.141-0.04c1,0.4,1.83,1.19,2.25,2.18c0.22,0.5,0.319,1.03,0.33,1.58C36.09,31.97,36.079,31.98,36.079,31.99z
		"/><path fill="#E15F5A" d="M52.699 10.91c-.21 2.55-1.17 9.13-5.35 13.4l-10.28 4.44c-.06-.1-.11-.18-.181-.28l6.171-6.17c.38-.38.38-1 0-1.37-.37-.38-.98-.38-1.37 0l-6.18 6.17c-.141-.09-.271-.18-.42-.27l4.119-10.39C43.51 12.26 50.139 11.18 52.699 10.91zM20.939 20.93c-.38.37-.38.99 0 1.37l6.17 6.18c-.1.14-.189.28-.29.43l-10.38-4.12c-4.18-4.3-5.26-10.93-5.53-13.49 2.55.21 9.12 1.17 13.41 5.35l4.431 10.27c-.091.06-.181.12-.271.18l-6.181-6.17C21.92 20.55 21.31 20.55 20.939 20.93z"/></svg>